<svg enable-background="new 0 0 32 32" viewBox="0 0 32 32" xmlns="http://www.w3.org/2000/svg"><path d="m14.209 31.36c-.096 0-.187-.038-.254-.105l-13.209-13.213c-.141-.141-.141-.369 0-.51l16.79-16.786c.141-.141.369-.141.51 0l6.352 6.35 3.348-3.35c.141-.141.369-.14.51 0 .141.141.141.369 0 .509l-3.348 3.351 6.348 6.346c.067.067.105.159.105.254s-.038.187-.105.254l-16.793 16.795c-.067.067-.158.105-.254.105zm-12.7-13.573 12.7 12.704 16.282-16.286-6.093-6.091-.99.991c.661.908.582 2.191-.236 3.009-.878.877-2.407.879-3.287 0-.905-.906-.905-2.38 0-3.286.794-.793 2.13-.885 3.016-.233l.988-.99-6.098-6.096zm20.019-8.919c-.428 0-.831.167-1.134.47-.303.302-.47.705-.47 1.134 0 .428.167.831.47 1.134.606.606 1.663.604 2.268 0 .303-.303.47-.706.47-1.134 0-.305-.084-.596-.241-.848l-1.104 1.105c-.141.141-.369.14-.51 0-.141-.141-.141-.369 0-.509l1.105-1.106c-.253-.161-.547-.246-.854-.246zm-3.278 5.397-.51-.509-.929.929c-1.025-.792-2.446-.778-3.319.095-.467.466-.707 1.101-.677 1.787.024.556.233 1.086.581 1.534l-2.443 2.443c-.519-.734-.5-1.706.096-2.302l-.509-.51c-.467.467-.707 1.102-.677 1.787.025.556.234 1.086.581 1.534l-.965.965.509.51.968-.968c.493.38 1.072.584 1.644.584.618 0 1.22-.225 1.674-.678.874-.874.887-2.294.095-3.32l2.445-2.445c.224.315.354.68.371 1.057.021.481-.145.924-.467 1.246l.509.51c.467-.467.707-1.102.677-1.787-.024-.556-.234-1.086-.581-1.534zm-4.715 2.27c-.021-.481.145-.924.466-1.246.322-.322.769-.494 1.246-.466.377.016.741.147 1.056.37l-2.398 2.398c-.223-.314-.354-.679-.37-1.056zm.229 4.422c-.596.596-1.567.615-2.302.096l2.397-2.397c.52.734.5 1.706-.095 2.301z"/><path d="m0 0h32v32h-32z" fill="none"/></svg>